<svg xmlns="http://www.w3.org/2000/svg" viewBox="10 50 180 130" width="1440" height="1040">
  <defs>
    <filter id="s1">
      <feDropShadow dx="0" dy="2" stdDeviation="2" flood-color="#000" flood-opacity="0.2"/>
    </filter>
    <filter id="g1">
      <feDropShadow dx="0" dy="0" stdDeviation="3" flood-color="#FFD000" flood-opacity="0.3"/>
    </filter>
    <linearGradient id="hg" x1="0" y1="0" x2="0" y2="1">
      <stop offset="0%" stop-color="#FFE033"/>
      <stop offset="100%" stop-color="#E8B800"/>
    </linearGradient>
  </defs>

  <!-- BASE PLATE -->
  <rect x="22" y="134" width="156" height="30" rx="9" fill="#F0F0F0" filter="url(#s1)"/>
  <rect x="22" y="134" width="156" height="4" rx="9" fill="#FFFFFF" opacity="0.9"/>
  <rect x="28" y="158" width="18" height="5" rx="2.5" fill="#BBBBBB"/>
  <rect x="154" y="158" width="18" height="5" rx="2.5" fill="#BBBBBB"/>
  <rect x="30" y="140" width="116" height="3.5" rx="1.75" fill="#D0D0D0"/>
  <rect x="32" y="145" width="4" height="1.5" rx="0.75" fill="#C4C4C4"/>
  <rect x="40" y="145" width="4" height="1.5" rx="0.75" fill="#C4C4C4"/>
  <rect x="48" y="145" width="4" height="1.5" rx="0.75" fill="#C4C4C4"/>

  <!-- ARM -->
  <path d="M 22 134 L 22 88 Q 22 72 38 68 L 140 62 Q 160 60 168 76 L 174 96 L 174 134 Z" fill="#EEEEEE"/>
  <path d="M 22 88 Q 22 72 38 68 L 140 62 Q 160 60 168 76 L 168 90 L 22 90 Z" fill="#C0C0C0"/>
  <path d="M 30 88 Q 30 76 44 73 L 138 67 Q 155 65 163 77" fill="none" stroke="#FFFFFF" stroke-width="1.5" stroke-linecap="round" opacity="0.6"/>
  <rect x="50" y="78" width="60" height="2" rx="1" fill="#D8D8D8" opacity="0.5"/>

  <!-- HINGE -->
  <circle cx="170" cy="112" r="20" fill="#222222"/>
  <circle cx="170" cy="112" r="20" fill="none" stroke="url(#hg)" stroke-width="4.5"/>
  <circle cx="170" cy="112" r="9.5" fill="#FFD000" filter="url(#g1)"/>
  <circle cx="170" cy="112" r="5" fill="#FFD000"/>
  <circle cx="170" cy="112" r="3.5" fill="#111111"/>
  <circle cx="167" cy="108" r="2.5" fill="#FFFFFF" opacity="0.25"/>

  <!-- MOUTH -->
  <rect x="22" y="118" width="146" height="16" fill="#1A1A1A"/>
  <rect x="24" y="120" width="142" height="4" fill="#111111"/>

  <!-- STAPLE -->
  <rect x="32" y="110" width="52" height="10" rx="5" fill="#FFD000"/>
  <rect x="32" y="110" width="10" height="32" rx="5" fill="#FFD000"/>
  <rect x="74" y="110" width="10" height="32" rx="5" fill="#FFD000"/>
  <rect x="34" y="112" width="48" height="2" rx="1" fill="#FFE566" opacity="0.5"/>
</svg>
