<svg width="200" height="200" viewBox="0 0 200 200" xmlns="http://www.w3.org/2000/svg">
  <rect width="200" height="200" fill="#0A0A0A" rx="40"/>
  <circle cx="28" cy="28" r="4" fill="#D4A800" opacity="0.4"/>
  <rect x="22" y="134" width="156" height="30" rx="9" fill="#333333"/>
  <rect x="22" y="134" width="156" height="4" rx="9" fill="#444444" opacity="0.9"/>
  <rect x="28" y="158" width="18" height="5" rx="2.5" fill="#555555"/>
  <rect x="154" y="158" width="18" height="5" rx="2.5" fill="#555555"/>
  <rect x="30" y="140" width="116" height="3.5" rx="1.75" fill="#444444"/>
  <rect x="32" y="145" width="4" height="1.5" rx="0.75" fill="#4A4A4A"/>
  <rect x="40" y="145" width="4" height="1.5" rx="0.75" fill="#4A4A4A"/>
  <rect x="48" y="145" width="4" height="1.5" rx="0.75" fill="#4A4A4A"/>
  <path d="M 22 134 L 22 88 Q 22 72 38 68 L 140 62 Q 160 60 168 76 L 174 96 L 174 134 Z" fill="#555555"/>
  <path d="M 22 88 Q 22 72 38 68 L 140 62 Q 160 60 168 76 L 168 90 L 22 90 Z" fill="#444444"/>
  <path d="M 30 88 Q 30 76 44 73 L 138 67 Q 155 65 163 77" fill="none" stroke="#666666" stroke-width="1.5" stroke-linecap="round" opacity="0.5"/>
  <circle cx="170" cy="112" r="20" fill="#FFFFFF"/>
  <circle cx="170" cy="112" r="20" fill="none" stroke="#C8A800" stroke-width="4.5"/>
  <circle cx="170" cy="112" r="9.5" fill="#D4A800"/>
  <circle cx="170" cy="112" r="5" fill="#D4A800"/>
  <circle cx="170" cy="112" r="3.5" fill="#FFFFFF"/>
  <rect x="22" y="118" width="146" height="16" fill="#FFFFFF"/>
  <rect x="24" y="120" width="142" height="4" fill="#E8E8E8"/>
  <rect x="32" y="110" width="52" height="10" rx="5" fill="#D4A800"/>
  <rect x="32" y="110" width="10" height="32" rx="5" fill="#D4A800"/>
  <rect x="74" y="110" width="10" height="32" rx="5" fill="#D4A800"/>
  <rect x="34" y="112" width="48" height="2" rx="1" fill="#E8C000" opacity="0.5"/>
  <rect x="14" y="164" width="172" height="3.5" rx="1.75" fill="#D4A800" opacity="0.08"/>
</svg>
